# xmcd
#
# Track frame offsets:
#	150
#	4036
#	23624
#	47562
#	77919
#	98616
#	113560
#	130284
#	148126
#	172559
#	193142
#	194928
#	213757
#	228786
#
# Disc length: 3270 seconds
#
# Revision: 2850343503
# Processed by: cddbd v1.5.2PL0 Copyright (c) Steve Scherf et al.
# Submitted via: EZCDAudioConverter 8.0.2.1
#
DISCID=af0cc40e
DTITLE=Đoan Trang - Âm Bản
DYEAR=2007
DGENRE=World Pop
TTITLE0=Đoan Trang - Prologue
TTITLE1=Đoan Trang - Quạt giấy
TTITLE2=Đoan Trang - Cầu lá
TTITLE3=Đoan Trang - Cỏ và mưa
TTITLE4=Đoan Trang - Nếp ngày
TTITLE5=Đoan Trang - Chàng hát rong
TTITLE6=Đoan Trang - Cổ tích
TTITLE7=Đoan Trang - Ngày hồng
TTITLE8=Đoan Trang - Giấc mơ thật
TTITLE9=Đoan Trang - Trôi trong gương
TTITLE10=Đoan Trang - Scat
TTITLE11=Đoan Trang - Trốn tình
TTITLE12=Soundtrack - Chàng hát rong
TTITLE13=Soundtrack - Cổ tích
EXTD=
EXTT0=
EXTT1=
EXTT2=
EXTT3=
EXTT4=
EXTT5=
EXTT6=
EXTT7=
EXTT8=
EXTT9=
EXTT10=
EXTT11=
EXTT12=
EXTT13=
PLAYORDER=
